<?xml version="1.0" encoding="UTF-8"?><svg id="Layer_2" xmlns="http://www.w3.org/2000/svg" xmlns:xlink="http://www.w3.org/1999/xlink" viewBox="0 0 878.77 144"><defs><style>.cls-1{fill:url(#New_Gradient_Swatch);}.cls-2{fill:#382b50;}</style><linearGradient id="New_Gradient_Swatch" x1="0" y1="72" x2="878.77" y2="72" gradientUnits="userSpaceOnUse"><stop offset="0" stop-color="#17ba76"/><stop offset=".94" stop-color="#bcff00"/></linearGradient></defs><g id="Layer_1-2"><g><rect class="cls-1" width="878.77" height="144"/><g><path class="cls-2" d="m73.84,27.93L29.06,115.53h39.58l5.34-11.84h34.28l5.29,11.84h41.2L110.68,27.93h-36.83Zm10.16,53.51l5.2-11.54c.56-1.2.97-2.04,1.23-2.54.26-.5.47-.95.63-1.35h.12c.2.4.45.86.75,1.38.3.52.71,1.36,1.23,2.51l5.16,11.54h-14.31Z"/><path class="cls-2" d="m227.8,66.32v1.94c0,.42.02,1.07.06,1.94h-.24c-.24-.36-.38-.57-.42-.63-.04-.06-.24-.31-.6-.75l-31.93-40.36h-34.62v87.06h30.26l-.18-42.45v-.33c0-.1-.02-.33-.06-.69h.18c.28.52.48.86.6,1.02s.34.44.66.84l32.95,41.62h33.48V28.47h-30.14v37.85Z"/><rect class="cls-2" x="271.45" y="28.47" width="36.47" height="87.06"/><rect class="cls-2" x="320.98" y="28.47" width="36.47" height="87.06"/><path class="cls-2" d="m438.73,66.32v1.94c0,.42.02,1.07.06,1.94h-.24c-.24-.36-.38-.57-.42-.63-.04-.06-.24-.31-.6-.75l-31.93-40.36h-34.62v87.06h30.26l-.18-42.45v-.33c0-.1-.02-.33-.06-.69h.18c.28.52.48.86.6,1.02s.34.44.66.84l32.95,41.62h33.48V28.47h-30.14v37.85Z"/><path class="cls-2" d="m572.1,66.62c-6.9-3.35-17.46-5.84-31.69-7.47-15.19-1.75-23.75-2.9-25.68-3.44s-2.9-1.26-2.9-2.18c0-1.16,1.12-2.03,3.35-2.63,2.23-.6,6.28-.9,12.14-.9,7.73,0,12.82.53,15.25,1.58,2.43,1.06,3.85,2.28,4.25,3.68l.36,1.38h31.39l-.24-3.83c-.6-9.17-5.21-15.82-13.84-19.94-8.63-4.13-21.26-6.19-37.88-6.19s-28.15,2.53-36.5,7.59c-8.35,5.06-12.53,12.4-12.53,22,0,8.53,3.36,14.92,10.08,19.16,6.72,4.25,17.65,7.25,32.8,9,13.87,1.59,22,2.75,24.4,3.47,2.39.72,3.59,1.71,3.59,2.99,0,1.43-1.32,2.48-3.95,3.14-2.63.66-7.41.99-14.35.99-7.65,0-13.02-.42-16.08-1.26s-4.9-2.49-5.5-4.96l-.48-2.09h-31.81l.3,5.8c.44,8.41,5.39,14.65,14.86,18.71,9.47,4.07,22.63,6.1,39.49,6.1s29.62-2.71,38.39-8.13c8.77-5.42,13.15-13.19,13.15-23.32,0-9.49-3.45-15.91-10.34-19.25Z"/><rect class="cls-2" x="590.03" y="28.47" width="36.47" height="87.06"/><path class="cls-2" d="m731.13,38.84c-8.39-6.92-19.1-10.37-32.14-10.37h-58.96v87.06h58.96c12.8,0,23.45-3.69,31.96-11.06s12.77-18.16,12.77-32.35v-1.32c0-14.39-4.2-25.04-12.59-31.96Zm-23.47,33.57c0,6.9-1.46,11.86-4.37,14.89-2.91,3.03-5.82,4.54-8.73,4.54h-19.85v-38.51h19.85c3.55,0,6.62,1.32,9.21,3.95,2.59,2.63,3.89,7.23,3.89,13.81v1.32Z"/><polygon class="cls-2" points="783.78 89.82 783.78 83.6 835.86 83.6 835.86 61 783.78 61 783.78 55.38 840.52 55.38 840.52 28.47 750.47 28.47 750.47 115.53 841.71 115.53 841.71 89.82 783.78 89.82"/></g></g></g></svg>